<?xml version="1.0" standalone="no"?>
<!DOCTYPE svg PUBLIC "-//W3C//DTD SVG 20010904//EN"
 "http://www.w3.org/TR/2001/REC-SVG-20010904/DTD/svg10.dtd">
<svg version="1.0" xmlns="http://www.w3.org/2000/svg"
 width="385.000000pt" height="302.000000pt" viewBox="0 0 385.000000 302.000000"
 preserveAspectRatio="xMidYMid meet">
<metadata>
Created by potrace 1.10, written by Peter Selinger 2001-2011
</metadata>
<g transform="translate(0.000000,302.000000) scale(0.100000,-0.100000)"
fill="#0054db" stroke="none">
<path d="M2600 2867 c-21 -6 -48 -26 -67 -49 -63 -77 -35 -183 60 -226 72 -32
200 5 212 60 4 15 11 30 16 33 12 8 12 95 -1 95 -5 0 -13 12 -16 26 -5 17 -10
22 -17 15 -7 -7 -7 -14 0 -23 19 -24 24 -76 12 -118 -14 -46 -50 -72 -90 -64
-21 4 -22 3 -4 -5 16 -8 11 -10 -25 -10 -84 -2 -124 18 -148 72 -14 33 -16
107 -3 107 5 0 13 10 17 23 7 21 7 21 16 2 7 -18 8 -17 4 3 -4 19 2 26 29 38
52 21 121 18 142 -6 17 -20 43 -27 43 -12 0 14 -23 32 -42 32 -10 0 -18 5 -18
10 0 12 -73 11 -120 -3z"/>
<path d="M1878 2770 c-91 -37 -176 -101 -228 -170 -14 -19 -33 -40 -42 -49 -9
-8 -15 -18 -12 -23 3 -4 -4 -17 -14 -29 -40 -42 -65 -137 -65 -239 -1 -84 3
-102 29 -157 31 -66 39 -74 49 -45 3 9 37 42 75 72 38 30 79 63 91 73 12 9 28
17 35 17 7 0 14 3 16 8 5 11 119 60 157 68 68 13 157 61 213 115 47 47 57 63
68 112 19 81 0 158 -50 203 -19 19 -42 34 -52 34 -9 0 -18 5 -20 12 -3 8 -37
13 -104 14 -78 2 -109 -1 -146 -16z m233 -16 c8 -8 23 -14 32 -14 9 0 26 -13
38 -29 12 -16 27 -27 34 -25 8 3 12 -6 13 -28 0 -18 6 -34 11 -36 15 -5 14
-79 0 -84 -6 -2 -12 -18 -12 -35 -1 -22 -9 -36 -23 -44 -12 -6 -27 -21 -34
-33 -11 -22 -110 -86 -133 -86 -7 0 -20 -7 -30 -15 -11 -7 -38 -17 -60 -20
-23 -4 -59 -16 -79 -26 -21 -11 -47 -19 -58 -19 -11 0 -23 -6 -26 -14 -3 -8
-22 -25 -42 -39 -46 -30 -86 -63 -127 -104 l-32 -31 -13 33 c-7 19 -19 36 -25
39 -8 3 -12 41 -12 120 0 94 2 116 14 116 8 0 12 4 8 10 -3 5 -2 17 4 27 5 10
21 43 37 73 15 30 36 62 46 71 10 9 18 20 18 24 0 16 124 125 141 125 10 0 24
7 32 15 8 7 26 17 41 21 14 3 26 9 26 13 0 4 16 8 36 9 20 1 38 3 40 5 9 9
121 -7 135 -19z"/>
<path d="M2081 2714 c0 -11 3 -14 6 -6 3 7 2 16 -1 19 -3 4 -6 -2 -5 -13z"/>
<path d="M1848 2703 c6 -2 18 -2 25 0 6 3 1 5 -13 5 -14 0 -19 -2 -12 -5z"/>
<path d="M1671 2554 c0 -11 3 -14 6 -6 3 7 2 16 -1 19 -3 4 -6 -2 -5 -13z"/>
<path d="M2000 2350 c0 -5 5 -10 10 -10 6 0 10 5 10 10 0 6 -4 10 -10 10 -5 0
-10 -4 -10 -10z"/>
<path d="M1818 2293 c6 -2 18 -2 25 0 6 3 1 5 -13 5 -14 0 -19 -2 -12 -5z"/>
<path d="M2231 2764 c0 -11 3 -14 6 -6 3 7 2 16 -1 19 -3 4 -6 -2 -5 -13z"/>
<path d="M2545 2690 c3 -5 8 -10 11 -10 2 0 4 5 4 10 0 6 -5 10 -11 10 -5 0
-7 -4 -4 -10z"/>
<path d="M2400 2240 c0 -6 -24 -9 -55 -9 -31 1 -59 -2 -63 -6 -4 -4 35 -5 87
-1 52 3 116 6 143 6 26 0 48 5 48 10 0 6 -33 10 -80 10 -46 0 -80 -4 -80 -10z"/>
<path d="M1178 2227 c-16 -6 -28 -14 -28 -19 0 -4 -6 -8 -12 -8 -17 0 -58 -64
-58 -89 0 -11 -4 -23 -10 -26 -29 -18 1 -170 42 -215 15 -17 28 -34 28 -38 1
-4 17 -17 36 -29 28 -19 39 -21 56 -12 14 8 23 8 31 0 8 -8 4 -11 -13 -11 -23
0 -23 0 -4 -15 10 -8 22 -15 25 -15 3 0 9 40 12 89 4 66 12 101 31 141 14 30
26 60 26 67 0 7 4 13 9 13 13 0 21 65 12 97 -7 24 -8 20 -14 -30 -4 -32 -11
-65 -16 -75 -34 -63 -53 -119 -59 -174 l-7 -63 -39 0 c-45 -1 -68 18 -98 80
-11 22 -17 29 -14 17 9 -42 -8 -13 -21 36 -15 56 -17 129 -4 137 5 3 12 18 16
33 5 24 10 28 38 26 26 -1 27 0 5 3 -16 2 -28 8 -28 12 0 4 12 14 28 22 15 8
30 19 34 25 8 12 93 12 121 0 19 -9 23 -32 5 -38 -6 -2 -8 -10 -4 -16 10 -17
26 -15 20 3 -4 8 -1 15 5 15 15 0 14 19 -2 33 -41 37 -94 46 -149 24z"/>
<path d="M2600 2229 c-34 -6 -33 -6 13 -8 46 -1 59 3 35 11 -7 2 -29 1 -48 -3z"/>
<path d="M2200 2216 c0 -9 37 -12 55 -5 15 6 11 8 -17 8 -21 1 -38 -1 -38 -3z"/>
<path d="M2685 2212 c11 -4 33 -15 48 -26 15 -10 30 -16 34 -13 3 4 -6 11 -21
16 -14 6 -26 15 -26 21 0 5 -12 10 -27 9 -23 -1 -25 -2 -8 -7z"/>
<path d="M1186 2181 c-4 -7 -5 -15 -2 -18 9 -9 19 4 14 18 -4 11 -6 11 -12 0z"/>
<path d="M2080 2159 c0 -5 5 -7 10 -4 6 3 10 8 10 11 0 2 -4 4 -10 4 -5 0 -10
-5 -10 -11z"/>
<path d="M2790 2150 c6 -11 16 -20 23 -19 9 0 9 2 0 6 -7 2 -13 11 -13 19 0 8
-5 14 -10 14 -7 0 -7 -6 0 -20z"/>
<path d="M358 2133 c7 -3 16 -2 19 1 4 3 -2 6 -13 5 -11 0 -14 -3 -6 -6z"/>
<path d="M2008 2133 c6 -2 18 -2 25 0 6 3 1 5 -13 5 -14 0 -19 -2 -12 -5z"/>
<path d="M490 2100 c-77 -10 -122 -31 -181 -87 -69 -65 -101 -130 -107 -218
-4 -73 7 -142 24 -137 8 2 9 65 2 112 -5 33 15 122 28 127 12 4 12 8 2 22 -7
9 -8 13 -4 9 5 -4 15 0 23 10 14 16 14 16 9 -1 -4 -11 -2 -16 5 -11 6 3 9 15
6 25 -3 10 0 17 5 16 6 -1 13 4 16 12 3 9 0 11 -8 6 -8 -5 -11 -4 -6 3 3 6 15
9 26 7 12 -2 18 0 15 6 -8 12 8 12 21 -1 6 -6 10 -3 11 10 1 13 -2 18 -10 13
-7 -3 -3 3 7 16 15 16 21 18 28 9 5 -9 8 -9 8 -2 0 7 12 15 28 19 32 9 122 12
122 5 0 -4 16 -4 36 -2 40 5 124 -16 124 -31 0 -5 8 -3 17 4 11 10 14 10 9 2
-4 -7 -3 -13 2 -13 5 0 9 -7 9 -15 0 -8 -5 -15 -10 -15 -6 0 -7 -3 -4 -6 4 -4
14 -1 22 6 13 11 19 10 36 -8 11 -12 26 -22 34 -22 8 0 15 -4 15 -8 0 -5 -7
-9 -15 -9 -8 0 -15 5 -15 10 0 6 -2 8 -5 5 -9 -9 6 -38 17 -32 13 9 58 -44 58
-68 0 -12 9 -32 21 -44 18 -19 19 -25 8 -46 -11 -20 -10 -21 2 -11 12 10 18 5
32 -29 10 -22 16 -47 12 -56 -3 -8 3 -20 12 -28 17 -12 17 -14 1 -42 -14 -23
-15 -29 -3 -29 8 0 12 4 9 8 -2 5 1 17 8 28 10 17 9 24 -7 43 l-20 23 23 -19
c12 -11 22 -27 21 -35 -3 -33 1 -52 11 -46 5 3 17 -11 27 -32 9 -21 19 -42 22
-48 2 -5 -3 -4 -12 4 -20 16 -23 5 -3 -14 7 -8 16 -11 20 -8 3 4 6 -8 6 -25 0
-17 6 -35 14 -39 8 -4 21 -25 30 -47 19 -45 19 -49 6 -41 -6 3 -7 -1 -3 -10 4
-13 8 -14 14 -4 11 18 19 7 22 -29 1 -17 6 -30 12 -29 5 1 11 -8 13 -21 2 -13
8 -20 14 -16 7 5 9 1 5 -9 -3 -10 -2 -17 3 -17 18 0 10 -18 -10 -23 -11 -3
-20 -11 -20 -19 0 -10 3 -9 11 2 9 13 10 13 6 0 -2 -8 -12 -14 -21 -14 -11 1
-16 -6 -16 -22 0 -14 -6 -24 -15 -24 -9 0 -12 -6 -8 -17 5 -12 3 -14 -7 -8
-10 6 -12 4 -7 -8 7 -20 -1 -47 -14 -47 -18 0 -36 -24 -32 -42 3 -9 -3 -22
-15 -29 -11 -7 -18 -18 -15 -24 2 -7 -3 -15 -12 -19 -10 -3 -15 -13 -12 -21 4
-9 1 -12 -7 -9 -8 3 -17 1 -21 -5 -3 -6 0 -11 7 -11 7 0 4 -6 -7 -12 -11 -6
-24 -17 -28 -25 -4 -7 -12 -13 -18 -13 -5 0 -23 -9 -38 -21 -23 -17 -43 -21
-102 -21 -42 0 -75 5 -77 11 -2 5 -10 7 -18 4 -9 -3 -14 1 -14 12 0 10 5 14
13 9 9 -5 9 -3 -1 7 -10 11 -14 11 -21 1 -6 -10 -13 -8 -32 7 -15 13 -19 20
-10 21 17 0 5 15 -12 15 -13 0 -14 26 -3 65 l7 25 -14 -24 c-14 -23 -14 -23
-19 -3 -3 12 -1 23 6 26 6 2 1 5 -11 5 -15 1 -23 7 -23 19 0 9 -7 25 -14 35
-8 11 -12 34 -10 58 3 38 -7 51 -22 27 -4 -6 -3 -9 2 -6 5 4 10 -5 10 -19 2
-24 2 -24 -13 -4 -8 12 -12 25 -9 30 3 4 -4 18 -15 30 -12 12 -18 28 -16 36 3
7 -1 16 -10 19 -10 4 -13 14 -9 31 4 17 3 23 -6 20 -15 -5 -85 129 -80 151 2
8 -3 13 -10 12 -7 -2 -12 5 -12 15 1 9 -2 17 -6 17 -4 0 -13 18 -20 40 -7 22
-18 40 -23 40 -5 0 -7 11 -5 25 3 15 1 22 -5 18 -6 -4 -8 0 -4 10 4 12 1 17
-9 17 -11 0 -14 6 -10 16 4 10 2 13 -6 8 -8 -5 -9 -2 -5 9 3 10 3 17 -2 17 -5
0 -11 10 -15 22 -4 17 -8 20 -17 11 -12 -12 15 -70 286 -628 89 -183 107 -213
140 -235 21 -14 41 -25 44 -26 3 0 26 -6 49 -13 51 -14 119 -4 178 28 21 11
42 17 48 14 6 -3 8 -2 3 2 -4 5 8 25 27 44 19 20 60 81 91 136 31 55 75 126
96 159 l39 59 -23 51 c-13 28 -56 119 -96 201 -39 83 -109 229 -155 325 -47
100 -89 174 -95 172 -7 -1 -9 2 -6 9 9 14 -38 63 -90 93 -83 48 -187 68 -285
56z"/>
<path d="M2823 2095 c0 -8 4 -12 9 -9 5 3 6 10 3 15 -9 13 -12 11 -12 -6z"/>
<path d="M3285 2098 c-118 -12 -223 -72 -272 -156 -15 -25 -57 -109 -93 -186
-37 -78 -89 -186 -115 -241 -113 -238 -138 -291 -146 -312 -5 -13 -16 -23 -26
-23 -15 0 -16 -2 -3 -10 10 -6 17 -4 23 6 8 13 11 13 23 -3 14 -17 14 -16 5 4
-8 17 -7 29 7 52 9 17 21 31 25 31 5 0 6 4 3 8 -3 5 13 42 34 83 24 45 40 66
41 54 0 -11 3 -14 6 -7 3 7 1 18 -4 25 -7 8 -1 30 18 66 24 47 28 51 34 31 4
-12 9 -19 12 -17 2 3 0 14 -6 25 -6 11 -8 28 -4 38 6 16 7 16 15 -2 6 -13 7
-10 3 14 -2 17 -1 32 3 32 5 0 19 21 31 48 12 26 27 55 32 65 5 10 7 23 3 29
-4 6 -3 8 3 5 12 -8 23 14 23 44 0 10 5 19 11 19 5 0 7 5 4 10 -3 6 -2 10 2
10 5 0 14 12 21 28 10 24 11 25 5 2 -3 -14 -2 -22 2 -17 5 4 9 15 10 25 6 54
61 127 89 116 9 -3 16 -1 16 6 0 6 -5 8 -12 4 -7 -4 -8 -3 -4 5 8 13 86 55 86
46 0 -3 12 1 28 9 15 7 51 14 80 15 29 0 59 3 65 7 7 3 3 -2 -8 -12 -20 -17
-20 -17 0 -8 32 13 104 6 138 -14 25 -14 32 -24 30 -47 -1 -15 0 -25 3 -22 9
8 12 41 5 52 -3 6 2 2 11 -8 10 -11 15 -24 11 -30 -3 -5 -1 -7 5 -4 12 8 42
-2 42 -14 0 -5 9 -18 21 -30 16 -16 18 -23 8 -35 -9 -11 -8 -14 5 -14 16 0 21
-16 17 -57 -1 -13 3 -23 9 -23 11 0 13 -74 3 -133 -4 -27 -9 -35 -15 -25 -7
10 -8 10 -6 -2 3 -24 -13 -64 -21 -51 -4 7 -8 -1 -8 -18 0 -16 -7 -37 -16 -46
-9 -9 -17 -20 -17 -25 0 -5 -13 -31 -29 -59 -16 -27 -27 -52 -24 -55 3 -3 -4
-20 -16 -39 -11 -19 -17 -38 -13 -43 4 -4 -2 -2 -12 6 -18 14 -19 14 -8 -6 9
-17 9 -24 -2 -33 -7 -6 -16 -8 -20 -4 -4 4 -4 1 -1 -8 3 -8 -8 -44 -25 -79
-17 -36 -29 -56 -27 -44 3 12 -1 21 -8 21 -10 0 -11 -7 -4 -24 9 -25 3 -53
-13 -53 -5 0 -6 -4 -3 -10 3 -5 -7 -27 -22 -47 -15 -20 -21 -33 -13 -29 12 7
13 7 2 -5 -11 -11 -14 -12 -21 -1 -7 11 -10 10 -14 -3 -5 -10 -3 -14 5 -9 8 5
9 -1 4 -20 -12 -48 -52 -127 -61 -119 -4 5 -5 2 -1 -4 4 -7 -2 -20 -13 -30
-12 -10 -16 -20 -11 -23 13 -8 -30 -90 -47 -90 -7 0 -13 5 -13 10 0 6 -8 10
-17 10 -15 -1 -14 -4 6 -21 20 -17 22 -23 12 -42 -6 -12 -9 -14 -7 -4 3 9 0
17 -6 17 -6 0 -8 -11 -4 -31 4 -23 3 -30 -7 -26 -8 3 -13 -2 -13 -12 0 -9 -2
-29 -4 -46 -3 -26 -4 -24 -10 15 l-7 45 -1 -37 c-2 -26 -7 -38 -16 -38 -8 0
-17 -4 -20 -9 -4 -5 3 -7 14 -4 24 6 26 -6 4 -33 -8 -10 -13 -13 -9 -6 3 6 1
12 -4 12 -6 0 -11 -9 -11 -19 0 -31 -17 -34 -24 -5 -4 15 -9 24 -12 22 -2 -3
0 -17 5 -31 8 -19 15 -25 27 -20 14 5 16 3 11 -11 -4 -10 -7 -25 -7 -34 -1
-15 -3 -14 -17 3 -15 19 -15 19 -9 -8 6 -25 4 -28 -12 -23 -12 4 -25 -1 -37
-14 -11 -12 -13 -20 -6 -20 6 0 14 7 17 15 7 17 24 21 24 5 0 -5 -13 -24 -30
-43 -22 -26 -26 -37 -18 -45 9 -9 9 -12 0 -12 -6 0 -16 8 -22 18 -11 16 -11
15 -5 -2 8 -26 -31 -67 -59 -62 -12 2 -15 1 -8 -1 27 -10 3 -33 -35 -33 -9 0
-24 -10 -34 -22 -11 -11 -19 -17 -19 -11 0 6 -18 6 -53 0 -72 -13 -188 -1
-180 19 3 8 3 21 0 29 -5 13 -11 12 -43 -1 -46 -19 -58 -9 -13 11 30 14 30 15
7 10 -19 -4 -28 -1 -28 7 0 9 -3 8 -10 -2 -8 -12 -16 -9 -45 22 -40 42 -44 53
-15 45 11 -3 17 -1 14 4 -3 6 -13 9 -22 7 -10 -2 -25 5 -34 16 -21 22 -22 28
-7 43 9 9 5 14 -15 19 -25 6 -31 18 -28 59 2 15 0 17 -7 6 -5 -8 -8 -28 -7
-46 4 -39 86 -164 105 -157 8 3 12 -1 9 -9 -6 -17 20 -38 92 -74 72 -37 218
-47 290 -21 25 10 50 18 55 20 23 6 74 43 68 49 -3 4 3 7 14 7 17 0 20 5 16
23 -3 14 -2 18 4 9 7 -9 15 -4 31 18 12 16 22 37 22 46 0 10 3 15 6 11 9 -8
78 124 76 146 0 9 3 15 9 12 5 -4 9 -1 9 5 0 6 22 57 49 113 44 91 82 173 86
187 2 6 66 140 210 435 225 464 227 468 227 543 0 37 -7 87 -16 111 -21 57
-86 143 -104 136 -7 -2 -11 -1 -8 4 8 12 -23 38 -69 57 -55 23 -128 31 -210
22z m-925 -1728 c0 -5 -4 -10 -10 -10 -5 0 -10 5 -10 10 0 6 5 10 10 10 6 0
10 -4 10 -10z m196 -198 c-4 -3 -12 0 -19 7 -9 9 -9 14 3 21 11 7 16 5 18 -6
2 -9 1 -18 -2 -22z"/>
<path d="M1946 2088 c-21 -12 -50 -35 -78 -60 -10 -10 -18 -15 -18 -12 0 6
-162 -157 -189 -191 -10 -12 -10 -20 -2 -28 8 -8 11 -7 11 5 0 9 11 19 25 22
14 4 25 13 25 22 0 8 4 13 9 10 5 -3 11 8 15 25 3 17 10 28 16 24 11 -7 55 14
46 22 -3 3 -12 0 -21 -7 -8 -7 -15 -8 -15 -2 0 14 27 23 46 15 14 -5 16 -2 11
19 -5 19 -2 28 10 32 9 4 18 4 21 1 3 -3 0 -5 -6 -5 -7 0 -12 -16 -12 -40 0
-27 -4 -40 -13 -40 -11 0 -12 -11 -5 -57 5 -32 7 -71 5 -88 -3 -18 3 -46 15
-69 11 -21 15 -35 9 -31 -6 3 -11 0 -11 -8 0 -10 7 -13 20 -10 25 7 25 8 -1
50 -19 30 -21 45 -17 136 5 132 32 189 118 257 27 21 17 27 -14 8z"/>
<path d="M1112 2043 c-1 -28 -5 -60 -8 -70 -5 -17 -5 -17 6 0 6 9 9 41 7 70
l-3 52 -2 -52z"/>
<path d="M249 2043 c-13 -16 -12 -17 4 -4 9 7 17 15 17 17 0 8 -8 3 -21 -13z"/>
<path d="M846 2052 c-2 -4 4 -8 14 -8 10 0 16 4 14 8 -3 4 -9 8 -14 8 -5 0
-11 -4 -14 -8z"/>
<path d="M1282 2049 c2 -6 8 -10 13 -10 5 0 11 4 13 10 2 6 -4 11 -13 11 -9 0
-15 -5 -13 -11z"/>
<path d="M2797 2041 c-4 -17 -3 -21 5 -13 5 5 8 16 6 23 -3 8 -7 3 -11 -10z"/>
<path d="M1351 1944 c0 -11 3 -14 6 -6 3 7 2 16 -1 19 -3 4 -6 -2 -5 -13z"/>
<path d="M3606 1935 c-3 -9 -6 -22 -5 -28 0 -7 5 -1 10 12 5 13 8 26 5 28 -2
2 -6 -3 -10 -12z"/>
<path d="M1687 1933 c-4 -3 -7 -11 -7 -17 0 -6 5 -5 12 2 6 6 9 14 7 17 -3 3
-9 2 -12 -2z"/>
<path d="M306 1913 c-6 -14 -5 -15 5 -6 7 7 10 15 7 18 -3 3 -9 -2 -12 -12z"/>
<path d="M800 1912 c0 -4 9 -8 20 -9 11 -1 20 2 20 5 0 4 -9 8 -20 9 -11 1
-20 -2 -20 -5z"/>
<path d="M2631 1901 c-7 -5 -9 -11 -5 -14 5 -3 15 1 22 9 14 16 5 18 -17 5z"/>
<path d="M1160 1890 c0 -5 5 -10 10 -10 6 0 10 5 10 10 0 6 -4 10 -10 10 -5 0
-10 -4 -10 -10z"/>
<path d="M2990 1830 c0 -5 5 -10 11 -10 5 0 7 5 4 10 -3 6 -8 10 -11 10 -2 0
-4 -4 -4 -10z"/>
<path d="M2555 1819 c-11 -16 -1 -19 13 -3 7 8 8 14 3 14 -5 0 -13 -5 -16 -11z"/>
<path d="M1626 1785 c-8 -23 -8 -35 3 -35 13 0 23 32 13 42 -6 6 -12 3 -16 -7z"/>
<path d="M1660 1760 c-8 -5 -11 -12 -7 -16 4 -4 13 -2 19 4 15 15 7 24 -12 12z"/>
<path d="M880 1750 c0 -5 5 -10 11 -10 5 0 7 5 4 10 -3 6 -8 10 -11 10 -2 0
-4 -4 -4 -10z"/>
<path d="M1596 1744 c-3 -11 -21 -35 -38 -55 -18 -20 -41 -52 -51 -70 -42 -76
-52 -94 -62 -105 -15 -17 -38 -50 -60 -88 -63 -107 -85 -147 -85 -155 0 -5 -6
-11 -14 -14 -8 -3 -20 -25 -27 -49 -7 -24 -16 -48 -21 -55 -5 -6 -5 -14 2 -18
6 -4 13 6 16 24 4 17 10 29 14 26 4 -2 5 8 4 23 -2 15 -1 21 2 13 5 -9 11 -3
20 19 8 18 17 30 21 27 8 -9 32 24 33 46 0 11 8 17 23 18 16 1 18 2 5 6 -21 5
-24 23 -4 23 14 0 39 54 30 63 -3 3 3 4 13 4 13 -2 18 5 18 23 0 30 35 81 42
63 3 -7 12 -13 21 -13 12 0 13 3 4 12 -15 15 -16 48 -2 48 6 0 10 8 10 18 0
22 57 82 77 82 11 0 13 7 9 26 -5 19 -2 30 11 39 14 10 15 17 6 25 -8 9 -12 8
-17 -6z m-6 -63 c0 -5 -7 -12 -16 -15 -14 -5 -15 -4 -4 9 14 17 20 19 20 6z"/>
<path d="M2460 1741 c-23 -7 -23 -8 -5 -13 11 -3 26 1 33 9 14 14 10 15 -28 4z"/>
<path d="M1885 1730 c3 -5 8 -10 11 -10 2 0 4 5 4 10 0 6 -5 10 -11 10 -5 0
-7 -4 -4 -10z"/>
<path d="M2153 1713 c-15 -6 -17 -33 -3 -33 6 0 10 5 10 10 0 6 5 10 10 10 6
0 10 -7 10 -15 0 -8 7 -15 15 -15 8 0 15 3 15 8 0 7 -37 43 -43 41 -1 0 -8 -3
-14 -6z"/>
<path d="M2933 1688 c-11 -30 -11 -31 2 -14 10 13 15 15 15 6 0 -7 2 -11 5 -8
3 3 2 15 -3 27 -7 20 -8 19 -19 -11z"/>
<path d="M3752 1685 c0 -16 2 -22 5 -12 2 9 2 23 0 30 -3 6 -5 -1 -5 -18z"/>
<path d="M2115 1678 c-4 -10 -13 -18 -20 -18 -7 0 -15 -6 -17 -12 -3 -9 -32
-13 -86 -15 -80 -2 -102 -7 -102 -22 0 -10 99 -11 105 -1 3 5 24 6 47 3 27 -4
39 -3 35 4 -4 6 4 18 17 26 20 14 36 14 119 3 56 -7 93 -8 90 -2 -4 5 -1 6 7
1 8 -5 11 -23 7 -54 -3 -25 -3 -38 0 -28 2 9 8 17 13 17 4 0 7 14 6 31 0 18 4
34 10 36 7 2 10 -7 8 -24 -4 -23 -3 -24 4 -8 8 18 9 17 14 -8 3 -15 1 -27 -4
-27 -5 0 -6 -5 -3 -10 5 -8 12 -7 22 2 14 12 15 9 10 -27 -4 -22 -3 -32 1 -22
7 16 12 11 31 -27 13 -25 32 -53 42 -62 11 -10 19 -21 19 -26 0 -5 10 -23 22
-41 12 -18 31 -45 42 -61 10 -16 19 -35 19 -42 0 -7 4 -11 9 -8 14 9 9 -13 -7
-26 -19 -16 -19 -34 0 -50 13 -10 19 -10 33 4 10 9 22 13 25 9 4 -3 7 -3 7 2
0 8 -78 136 -89 145 -3 3 -7 11 -9 19 -2 7 -16 33 -32 57 -17 23 -30 48 -30
54 0 6 -4 8 -10 5 -5 -3 -10 1 -10 10 0 17 -57 107 -72 113 -16 7 -8 29 17 48
26 20 40 44 25 44 -5 0 -16 -7 -24 -16 -12 -11 -34 -15 -88 -14 -40 1 -95 2
-123 2 -34 0 -53 6 -62 17 -11 15 -12 15 -18 -1z m488 -485 c-3 -7 -9 -13 -13
-13 -14 0 -22 20 -16 36 5 12 8 13 20 2 7 -7 11 -19 9 -25z"/>
<path d="M296 1627 c3 -10 9 -15 12 -12 3 3 0 11 -7 18 -10 9 -11 8 -5 -6z"/>
<path d="M1560 1610 c0 -5 5 -10 10 -10 6 0 10 5 10 10 0 6 -4 10 -10 10 -5 0
-10 -4 -10 -10z"/>
<path d="M1840 1593 c0 -5 11 -9 25 -9 14 -1 22 2 19 7 -6 11 -44 12 -44 2z"/>
<path d="M1938 1583 c12 -2 32 -2 45 0 12 2 2 4 -23 4 -25 0 -35 -2 -22 -4z"/>
<path d="M2390 1493 c0 -15 19 -37 26 -31 3 4 -1 14 -10 23 -9 9 -16 13 -16 8z"/>
<path d="M350 1470 c0 -8 5 -22 10 -30 9 -13 10 -13 10 0 0 8 -5 22 -10 30 -9
13 -10 13 -10 0z"/>
<path d="M3525 1469 c-4 -6 -5 -12 -2 -15 2 -3 7 2 10 11 7 17 1 20 -8 4z"/>
<path d="M2285 1461 c-3 -5 -1 -12 5 -16 5 -3 10 1 10 9 0 18 -6 21 -15 7z"/>
<path d="M1040 1441 c0 -6 4 -13 10 -16 6 -3 7 1 4 9 -7 18 -14 21 -14 7z"/>
<path d="M2391 1433 c-1 -17 16 -25 25 -12 4 7 3 9 -4 5 -5 -3 -13 0 -15 6 -4
9 -6 10 -6 1z"/>
<path d="M386 1417 c3 -10 9 -15 12 -12 3 3 0 11 -7 18 -10 9 -11 8 -5 -6z"/>
<path d="M1191 1404 c0 -11 3 -14 6 -6 3 7 2 16 -1 19 -3 4 -6 -2 -5 -13z"/>
<path d="M2241 1404 c0 -11 3 -14 6 -6 3 7 2 16 -1 19 -3 4 -6 -2 -5 -13z"/>
<path d="M2458 1413 c7 -3 16 -2 19 1 4 3 -2 6 -13 5 -11 0 -14 -3 -6 -6z"/>
<path d="M2551 1404 c0 -11 3 -14 6 -6 3 7 2 16 -1 19 -3 4 -6 -2 -5 -13z"/>
<path d="M1432 1385 c0 -16 2 -22 5 -12 2 9 2 23 0 30 -3 6 -5 -1 -5 -18z"/>
<path d="M2770 1370 c0 -5 5 -10 11 -10 5 0 7 5 4 10 -3 6 -8 10 -11 10 -2 0
-4 -4 -4 -10z"/>
<path d="M2497 1357 c-3 -8 1 -14 8 -14 7 0 11 6 8 14 -3 7 -6 13 -8 13 -2 0
-5 -6 -8 -13z"/>
<path d="M3557 1357 c-3 -8 1 -14 8 -14 7 0 11 6 8 14 -3 7 -6 13 -8 13 -2 0
-5 -6 -8 -13z"/>
<path d="M1400 1350 c0 -5 5 -10 10 -10 6 0 10 5 10 10 0 6 -4 10 -10 10 -5 0
-10 -4 -10 -10z"/>
<path d="M2206 1352 c-3 -5 1 -15 9 -22 16 -14 20 -3 6 19 -5 8 -11 9 -15 3z"/>
<path d="M2185 1301 c-3 -5 -1 -12 5 -16 5 -3 10 1 10 9 0 18 -6 21 -15 7z"/>
<path d="M1120 1279 c0 -11 4 -18 10 -14 5 3 7 12 3 20 -7 21 -13 19 -13 -6z"/>
<path d="M2163 1230 c0 -30 2 -43 4 -27 2 15 2 39 0 55 -2 15 -4 2 -4 -28z"/>
<path d="M463 1255 c0 -8 4 -12 9 -9 4 3 8 9 8 15 0 5 -4 9 -8 9 -5 0 -9 -7
-9 -15z"/>
<path d="M2701 1224 c-6 -15 -9 -29 -7 -32 3 -2 10 8 16 23 14 36 7 43 -9 9z"/>
<path d="M2111 1205 c-18 -20 -20 -25 -7 -25 9 0 16 -5 16 -12 0 -6 3 -8 7 -5
6 7 16 67 10 67 -1 0 -13 -12 -26 -25z"/>
<path d="M1120 1170 c0 -6 4 -9 9 -6 5 4 12 1 14 -4 3 -6 4 -5 3 2 -3 15 -26
23 -26 8z"/>
<path d="M2650 1139 c0 -7 15 -27 34 -45 30 -29 35 -31 39 -14 3 14 -2 19 -24
24 -21 4 -29 11 -29 26 0 11 -4 20 -10 20 -5 0 -10 -5 -10 -11z"/>
<path d="M2695 1130 c3 -5 8 -10 11 -10 2 0 4 5 4 10 0 6 -5 10 -11 10 -5 0
-7 -4 -4 -10z"/>
<path d="M1205 1110 c-3 -5 -2 -10 4 -10 5 0 13 5 16 10 3 6 2 10 -4 10 -5 0
-13 -4 -16 -10z"/>
<path d="M2740 1066 c0 -9 5 -16 10 -16 6 0 10 4 10 9 0 6 -4 13 -10 16 -5 3
-10 -1 -10 -9z"/>
<path d="M1165 1030 c-10 -11 -16 -22 -14 -24 2 -2 12 7 22 20 22 29 17 32 -8
4z"/>
<path d="M2000 1020 c0 -11 2 -20 4 -20 2 0 6 9 9 20 3 11 1 20 -4 20 -5 0 -9
-9 -9 -20z"/>
<path d="M2766 1015 c9 -14 19 -24 21 -21 6 6 -20 46 -30 46 -4 0 0 -11 9 -25z"/>
<path d="M2720 1024 c0 -6 7 -19 15 -30 8 -10 14 -14 14 -9 0 6 -6 19 -14 29
-8 11 -15 15 -15 10z"/>
<path d="M1177 1005 c-4 -11 -10 -27 -13 -35 -3 -8 1 -5 11 8 9 12 15 28 13
34 -3 7 -7 4 -11 -7z"/>
<path d="M1920 1004 c0 -17 22 -14 28 4 2 7 -3 12 -12 12 -9 0 -16 -7 -16 -16z"/>
<path d="M3281 1004 c0 -11 3 -14 6 -6 3 7 2 16 -1 19 -3 4 -6 -2 -5 -13z"/>
<path d="M1985 980 c3 -5 8 -10 11 -10 2 0 4 5 4 10 0 6 -5 10 -11 10 -5 0 -7
-4 -4 -10z"/>
<path d="M2757 970 c-3 -11 -1 -20 4 -20 5 0 9 9 9 20 0 11 -2 20 -4 20 -2 0
-6 -9 -9 -20z"/>
<path d="M2791 964 c0 -11 3 -14 6 -6 3 7 2 16 -1 19 -3 4 -6 -2 -5 -13z"/>
<path d="M3291 964 c0 -11 3 -14 6 -6 3 7 2 16 -1 19 -3 4 -6 -2 -5 -13z"/>
<path d="M1110 951 c-12 -24 -13 -34 -1 -27 9 6 22 46 15 46 -2 0 -8 -9 -14
-19z"/>
<path d="M1933 954 c-18 -9 -33 -20 -33 -25 0 -5 -7 -9 -15 -9 -10 0 -15 -11
-15 -35 0 -37 -15 -47 -24 -17 -3 9 -4 5 -2 -11 3 -29 -22 -67 -45 -67 -12 0
-12 -2 0 -9 8 -5 9 -11 3 -15 -6 -3 -13 -2 -17 4 -12 19 -24 10 -31 -24 -3
-20 -13 -37 -23 -39 -11 -3 -9 -5 6 -6 16 -1 22 5 25 24 4 30 21 37 26 11 3
-11 0 -16 -7 -12 -6 4 -11 0 -11 -8 0 -24 15 -19 31 11 15 29 90 146 114 178
8 10 15 23 15 27 0 23 28 2 47 -35 12 -23 26 -41 31 -40 5 1 9 -3 8 -10 -1
-11 32 -63 184 -294 26 -40 50 -69 54 -66 3 4 6 -2 6 -11 0 -21 31 -76 42 -76
13 0 9 15 -10 36 -10 11 -17 25 -14 32 2 7 -8 26 -22 43 -14 17 -26 37 -26 45
0 8 -4 14 -10 14 -5 0 -10 6 -10 14 0 8 -10 18 -21 21 -17 6 -19 9 -8 16 9 5
9 9 2 9 -11 0 -44 52 -64 103 -6 15 -17 27 -24 27 -15 0 -28 27 -19 41 3 5 2
14 -2 20 -5 8 -9 8 -14 -1 -5 -8 -10 -9 -14 -1 -4 5 2 19 14 31 11 11 16 20
12 20 -4 0 -13 -5 -19 -11 -9 -9 -18 -4 -37 17 -14 16 -26 37 -26 47 0 9 -4
17 -10 17 -5 0 -7 7 -4 15 8 19 -3 19 -43 -1z"/>
<path d="M1858 943 c6 -2 18 -2 25 0 6 3 1 5 -13 5 -14 0 -19 -2 -12 -5z"/>
<path d="M1832 920 c0 -14 2 -19 5 -12 2 6 2 18 0 25 -3 6 -5 1 -5 -13z"/>
<path d="M2796 925 c-3 -9 -6 -22 -5 -28 0 -7 5 -1 10 12 5 13 8 26 5 28 -2 2
-6 -3 -10 -12z"/>
<path d="M980 909 c0 -5 5 -7 10 -4 6 3 10 8 10 11 0 2 -4 4 -10 4 -5 0 -10
-5 -10 -11z"/>
<path d="M2830 911 c0 -5 5 -13 10 -16 6 -3 10 -2 10 4 0 5 -4 13 -10 16 -5 3
-10 2 -10 -4z"/>
<path d="M1090 901 c0 -7 -5 -9 -12 -5 -7 4 -8 3 -4 -5 4 -6 3 -18 -3 -25 -8
-9 -7 -13 4 -13 7 0 13 3 13 6 -1 3 2 14 7 24 4 10 5 21 1 24 -3 4 -6 1 -6 -6z"/>
<path d="M2810 871 c0 -5 7 -12 16 -15 14 -5 15 -4 4 9 -14 17 -20 19 -20 6z"/>
<path d="M2864 867 c3 -20 52 -67 70 -67 6 0 0 9 -13 19 -13 10 -32 29 -42 42
-14 19 -17 20 -15 6z"/>
<path d="M2910 856 c0 -2 7 -7 16 -10 8 -3 12 -2 9 4 -6 10 -25 14 -25 6z"/>
<path d="M2816 828 c3 -4 9 -8 15 -8 5 0 9 4 9 8 0 5 -7 9 -15 9 -8 0 -12 -4
-9 -9z"/>
<path d="M3200 830 c0 -5 5 -10 11 -10 5 0 7 5 4 10 -3 6 -8 10 -11 10 -2 0
-4 -4 -4 -10z"/>
<path d="M1016 811 c-12 -13 -14 -21 -6 -26 6 -4 9 -1 8 7 -2 7 3 12 10 11 6
-2 12 4 12 12 0 19 -3 19 -24 -4z"/>
<path d="M2847 790 c-9 -11 -14 -20 -11 -20 13 0 44 21 44 30 0 16 -14 11 -33
-10z"/>
<path d="M2080 794 c0 -5 12 -14 26 -21 21 -10 29 -10 41 2 8 8 10 15 4 15 -5
0 -13 -4 -16 -10 -4 -6 -16 -4 -31 6 -13 9 -24 12 -24 8z"/>
<path d="M640 780 c0 -5 3 -10 8 -10 4 0 18 -28 31 -62 42 -109 199 -414 231
-448 36 -39 96 -80 115 -80 8 0 15 -4 15 -8 0 -10 76 -31 120 -33 76 -3 120 2
120 12 0 7 -29 9 -84 7 -64 -2 -82 0 -79 9 4 9 -7 13 -36 13 -31 0 -41 4 -41
16 0 11 6 14 20 10 11 -3 29 -9 40 -12 11 -3 20 -1 20 5 0 10 -41 16 -80 13
-39 -4 -70 10 -71 31 -1 17 -2 18 -6 5 -2 -10 -9 -18 -15 -18 -5 0 -8 6 -6 12
3 7 -1 19 -9 26 -7 8 -10 19 -6 25 4 6 0 8 -10 4 -12 -4 -19 3 -29 28 -6 19
-16 35 -20 35 -4 0 -8 5 -8 12 0 6 -6 19 -13 27 -8 9 -22 39 -32 66 -10 28
-23 57 -30 65 -8 9 -10 22 -5 35 14 33 10 42 -6 15 l-15 -25 6 32 c5 26 3 32
-14 38 -13 4 -21 15 -22 28 0 21 -1 21 -9 2 -7 -14 -8 -5 -6 30 2 28 2 42 -1
33 -6 -26 -23 -22 -23 5 0 13 -9 33 -20 45 -23 24 -30 27 -30 12z m110 -170
c0 -5 -4 -10 -10 -10 -5 0 -10 5 -10 10 0 6 5 10 10 10 6 0 10 -4 10 -10z"/>
<path d="M2944 765 c23 -17 66 -20 66 -5 0 6 -11 8 -25 4 -15 -4 -25 -2 -25 5
0 6 -8 11 -17 11 -16 -1 -16 -2 1 -15z"/>
<path d="M3145 760 c-3 -6 1 -7 9 -4 18 7 21 14 7 14 -6 0 -13 -4 -16 -10z"/>
<path d="M921 747 c2 -1 13 -9 24 -17 19 -14 19 -14 6 3 -7 9 -18 17 -24 17
-6 0 -8 -1 -6 -3z"/>
<path d="M3058 743 c12 -2 32 -2 45 0 12 2 2 4 -23 4 -25 0 -35 -2 -22 -4z"/>
<path d="M884 729 c-3 -6 -24 -9 -45 -7 -22 2 -39 0 -39 -4 0 -11 78 -10 84 1
3 5 16 7 29 4 18 -4 19 -3 7 6 -19 14 -27 14 -36 0z"/>
<path d="M2955 730 c-8 -13 3 -30 18 -30 8 0 7 3 -2 9 -7 5 -10 14 -7 20 4 6
5 11 2 11 -3 0 -8 -4 -11 -10z"/>
<path d="M735 720 c3 -5 16 -10 28 -10 18 0 19 2 7 10 -20 13 -43 13 -35 0z"/>
<path d="M2990 721 c0 -5 9 -7 20 -4 11 3 20 7 20 9 0 2 -9 4 -20 4 -11 0 -20
-4 -20 -9z"/>
<path d="M3120 710 c0 -5 -12 -11 -27 -11 -21 -1 -23 -3 -7 -6 11 -2 25 -16
31 -31 11 -26 11 -25 5 7 -4 30 -3 33 13 27 15 -5 16 -4 5 9 -15 18 -20 19
-20 5z"/>
<path d="M1683 663 c-1 -37 7 -32 21 15 5 15 3 22 -6 22 -9 0 -14 -13 -15 -37z"/>
<path d="M1750 690 c-8 -5 -21 -23 -30 -42 -9 -18 -22 -32 -28 -30 -7 1 -12
-9 -12 -22 0 -15 -11 -33 -27 -45 -20 -15 -22 -19 -8 -14 18 6 19 5 6 -10 -13
-16 -15 -16 -32 -1 -17 15 -18 14 -14 -24 3 -32 -1 -44 -21 -61 -13 -11 -24
-30 -24 -41 0 -11 -4 -20 -10 -20 -5 0 -12 -11 -16 -25 -3 -14 -10 -25 -15
-25 -5 0 -9 -6 -9 -14 0 -7 -12 -21 -26 -31 -22 -14 -28 -15 -35 -4 -10 16
-12 -1 -3 -25 14 -36 44 -12 102 82 17 29 32 58 32 63 0 5 4 9 8 9 5 0 18 17
30 38 12 20 32 50 46 65 15 17 22 35 19 45 -4 9 -2 14 2 10 5 -5 17 7 29 25
20 32 22 37 25 58 0 5 6 7 11 4 6 -3 10 0 10 9 0 8 5 16 12 18 7 3 8 7 2 11
-5 3 -16 2 -24 -3z m-120 -200 c0 -5 -4 -10 -10 -10 -5 0 -10 5 -10 10 0 6 5
10 10 10 6 0 10 -4 10 -10z"/>
<path d="M2216 608 c3 -5 10 -6 15 -3 13 9 11 12 -6 12 -8 0 -12 -4 -9 -9z"/>
<path d="M785 550 c-3 -5 -1 -10 4 -10 6 0 11 5 11 10 0 6 -2 10 -4 10 -3 0
-8 -4 -11 -10z"/>
<path d="M2291 523 c-7 -8 -11 -16 -8 -19 2 -2 10 2 17 11 17 20 9 27 -9 8z"/>
<path d="M2322 500 c0 -14 2 -19 5 -12 2 6 2 18 0 25 -3 6 -5 1 -5 -13z"/>
<path d="M2290 465 c0 -8 5 -15 10 -15 6 0 10 7 10 15 0 8 -4 15 -10 15 -5 0
-10 -7 -10 -15z"/>
<path d="M1515 459 c-11 -16 -1 -19 13 -3 7 8 8 14 3 14 -5 0 -13 -5 -16 -11z"/>
<path d="M1578 463 c7 -3 16 -2 19 1 4 3 -2 6 -13 5 -11 0 -14 -3 -6 -6z"/>
<path d="M830 450 c0 -5 5 -10 10 -10 6 0 10 5 10 10 0 6 -4 10 -10 10 -5 0
-10 -4 -10 -10z"/>
<path d="M866 442 c-4 -13 -5 -26 -2 -29 10 -11 18 4 14 29 l-4 23 -8 -23z"/>
<path d="M1520 406 c0 -31 6 -34 13 -6 3 11 1 23 -4 26 -5 3 -9 -6 -9 -20z"/>
<path d="M946 285 c4 -8 8 -15 10 -15 2 0 4 7 4 15 0 8 -4 15 -10 15 -5 0 -7
-7 -4 -15z"/>
<path d="M1430 237 c0 -22 -42 -35 -98 -29 -32 3 -52 1 -52 -6 0 -5 8 -8 18
-6 9 3 28 1 42 -5 22 -9 21 -10 -18 -10 -30 -1 -42 -5 -40 -13 8 -23 38 -20
96 8 72 35 83 46 65 62 -10 10 -13 10 -13 -1z"/>
<path d="M3020 230 c0 -5 5 -10 11 -10 5 0 7 5 4 10 -3 6 -8 10 -11 10 -2 0
-4 -4 -4 -10z"/>
<path d="M2808 213 c7 -3 16 -2 19 1 4 3 -2 6 -13 5 -11 0 -14 -3 -6 -6z"/>
<path d="M2858 203 c7 -3 16 -2 19 1 4 3 -2 6 -13 5 -11 0 -14 -3 -6 -6z"/>
<path d="M1178 63 c7 -3 16 -2 19 1 4 3 -2 6 -13 5 -11 0 -14 -3 -6 -6z"/>
</g>
</svg>
